<?xml version="1.0" encoding="UTF-8" standalone="no"?>
<!DOCTYPE svg PUBLIC "-//W3C//DTD SVG 1.1//EN" "http://www.w3.org/Graphics/SVG/1.1/DTD/svg11.dtd">
<svg width="100%" height="100%" viewBox="0 0 512 512" version="1.1" xmlns="http://www.w3.org/2000/svg" xmlns:xlink="http://www.w3.org/1999/xlink" xml:space="preserve" xmlns:serif="http://www.serif.com/" style="fill-rule:evenodd;clip-rule:evenodd;stroke-linejoin:round;stroke-miterlimit:2;">
    <path d="M397.3,200.2L438,237.8C451,250.9 451,272 438.2,284.9L273.8,446.4C267.4,452.8 259,456 250.6,456C242.2,456 233.7,452.8 227.3,446.3L67.2,285C54.4,272.1 54.4,251 67.2,238.1L95.9,210.9C102.2,204.6 110.3,201.7 117.9,203.1C125.6,204.5 132.1,210.1 135.8,218.5C136,218.9 153.2,256.3 184.8,256.3C216.4,256.3 243.1,228 243.1,194.5C243.1,162.7 206,146.2 205.6,146C197.2,142.2 191.6,135.6 190.2,127.9C188.8,120.2 191.7,112.1 198.1,105.6L227,72.7C233.5,66.2 241.7,62.7 250.5,62.7C259.3,62.7 267.6,66.1 273.8,72.4L311.3,113.6C318.3,80.7 347.3,56 382,56C421.9,56 454.4,88.7 454.4,128.9C454.4,163.9 429.9,193.2 397.3,200.2ZM382.1,69.3C349.5,69.3 323,96 323,128.9L323,129.1C323,129.4 322.9,129.7 322.8,130C322.7,130.6 322.6,131.1 322.4,131.6C322.3,131.7 322.2,131.8 322.2,131.9C321.9,132.6 321.4,133.2 320.9,133.7L320.9,133.8C320.8,133.9 320.6,134 320.4,134.1C319.9,134.5 319.4,134.9 318.8,135.1C318.4,135.2 318.1,135.2 317.7,135.3C317.3,135.4 316.9,135.6 316.5,135.6L316.3,135.6C315.9,135.6 315.5,135.4 315,135.3C314.6,135.2 314.2,135.2 313.8,135C313.5,134.9 313.2,134.6 312.9,134.4C312.5,134.1 312.1,133.9 311.7,133.5L311.6,133.4L264.4,81.5C260.9,78 256,75.9 250.7,75.9C245.4,75.9 240.5,78 236.8,81.7L207.9,114.5C204.3,118.2 202.8,121.9 203.4,125.3C204,128.7 206.8,131.6 211.1,133.6C212.9,134.4 256.5,153.8 256.5,194.3C256.5,235.7 224.4,269.4 184.9,269.4C144.8,269.4 124.7,225.6 123.9,223.8C121.9,219.4 119,216.7 115.7,216C112.4,215.4 108.7,216.9 105.3,220.3L76.6,247.5C69.1,255.1 69.1,267.7 76.8,275.4L236.9,436.7C244.6,444.4 257.1,444.4 264.7,436.7L429.2,275.3C436.8,267.6 436.8,255 429.1,247.3L377.8,200C377.8,200 377.8,199.9 377.7,199.9C377.3,199.5 377.1,199.1 376.8,198.7C376.6,198.4 376.3,198.1 376.2,197.8C376.1,197.5 376,197.1 376,196.8C375.9,196.3 375.7,195.8 375.7,195.3L375.7,195.2C375.7,194.9 375.8,194.6 375.9,194.3C376,193.8 376,193.3 376.2,192.8C376.4,192.3 376.7,192 376.9,191.6C377.1,191.3 377.2,191 377.4,190.7L377.5,190.6C377.9,190.2 378.3,190 378.7,189.7C379,189.5 379.3,189.2 379.6,189.1C379.9,189 380.3,188.9 380.6,188.9C381.1,188.8 381.6,188.6 382.1,188.6L382.2,188.6C414.8,188.6 441.3,161.9 441.3,129C441.2,96.1 414.7,69.3 382.1,69.3Z" style="fill:rgb(42,122,228);"/>
</svg>
