<?xml version="1.0" encoding="utf-8"?>
<!-- Generator: Adobe Illustrator 23.0.1, SVG Export Plug-In . SVG Version: 6.00 Build 0)  -->
<svg version="1.1" id="Layer_1" xmlns="http://www.w3.org/2000/svg" xmlns:xlink="http://www.w3.org/1999/xlink" x="0px" y="0px"
	 viewBox="0 0 512 512" style="enable-background:new 0 0 512 512;" xml:space="preserve">
<style type="text/css">
	.st0{fill-rule:evenodd;clip-rule:evenodd;fill:#1B1B1B;}
</style>
<path class="st0" d="M397.3,200.2l40.7,37.6c13,13.1,13,34.2,0.2,47.1L273.8,446.4c-6.4,6.4-14.8,9.6-23.2,9.6
	c-8.4,0-16.9-3.2-23.3-9.7L67.2,285c-12.8-12.9-12.8-34,0-46.9l28.7-27.2c6.3-6.3,14.4-9.2,22-7.8c7.7,1.4,14.2,7,17.9,15.4
	c0.2,0.4,17.4,37.8,49,37.8c31.6,0,58.3-28.3,58.3-61.8c0-31.8-37.1-48.3-37.5-48.5c-8.4-3.8-14-10.4-15.4-18.1
	c-1.4-7.7,1.5-15.8,7.9-22.3L227,72.7c6.5-6.5,14.7-10,23.5-10h0c8.8,0,17.1,3.4,23.3,9.7l37.5,41.2c7-32.9,36-57.6,70.7-57.6
	c39.9,0,72.4,32.7,72.4,72.9C454.4,163.9,429.9,193.2,397.3,200.2z M382.1,69.3c-32.6,0-59.1,26.7-59.1,59.6c0,0.1,0,0.1,0,0.2
	c0,0.3-0.1,0.6-0.2,0.9c-0.1,0.6-0.2,1.1-0.4,1.6c-0.1,0.1-0.2,0.2-0.2,0.3c-0.3,0.7-0.8,1.3-1.3,1.8c0,0,0,0,0,0.1
	c-0.1,0.1-0.3,0.2-0.5,0.3c-0.5,0.4-1,0.8-1.6,1c-0.4,0.1-0.7,0.1-1.1,0.2c-0.4,0.1-0.8,0.3-1.2,0.3c-0.1,0-0.1,0-0.2,0
	c-0.4,0-0.8-0.2-1.3-0.3c-0.4-0.1-0.8-0.1-1.2-0.3c-0.3-0.1-0.6-0.4-0.9-0.6c-0.4-0.3-0.8-0.5-1.2-0.9c0,0-0.1-0.1-0.1-0.1
	l-47.2-51.9c-3.5-3.5-8.4-5.6-13.7-5.6h0c-5.3,0-10.2,2.1-13.9,5.8l-28.9,32.8c-3.6,3.7-5.1,7.4-4.5,10.8c0.6,3.4,3.4,6.3,7.7,8.3
	c1.8,0.8,45.4,20.2,45.4,60.7c0,41.4-32.1,75.1-71.6,75.1c-40.1,0-60.2-43.8-61-45.6c-2-4.4-4.9-7.1-8.2-7.8
	c-3.3-0.6-7,0.9-10.4,4.3l-28.7,27.2c-7.5,7.6-7.5,20.2,0.2,27.9l160.1,161.3c7.7,7.7,20.2,7.7,27.8,0l164.5-161.4
	c7.6-7.7,7.6-20.3-0.1-28l-51.3-47.3c0,0,0-0.1-0.1-0.1c-0.4-0.4-0.6-0.8-0.9-1.2c-0.2-0.3-0.5-0.6-0.6-0.9c-0.1-0.3-0.2-0.7-0.2-1
	c-0.1-0.5-0.3-1-0.3-1.5c0,0,0-0.1,0-0.1c0-0.3,0.1-0.6,0.2-0.9c0.1-0.5,0.1-1,0.3-1.5c0.2-0.5,0.5-0.8,0.7-1.2
	c0.2-0.3,0.3-0.6,0.5-0.9c0,0,0.1-0.1,0.1-0.1c0.4-0.4,0.8-0.6,1.2-0.9c0.3-0.2,0.6-0.5,0.9-0.6c0.3-0.1,0.7-0.2,1-0.2
	c0.5-0.1,1-0.3,1.5-0.3c0,0,0.1,0,0.1,0c32.6,0,59.1-26.7,59.1-59.6C441.2,96.1,414.7,69.3,382.1,69.3z"/>
</svg>
